{"title":"Case Histories S01","uid":10119961,"size":2762034175,"categoryP":"video","categoryS":"tv_shows","magnet":"?xt=urn:btih:1ec3c9b924454e5f65f1f765442dfadc1759e4b6&amp;dn=Case+Histories+S01&amp;tr=udp%3A%2F%2Ftracker.openbittorrent.com%3A80&amp;tr=udp%3A%2F%2Fopen.demonii.com%3A1337&amp;tr=udp%3A%2F%2Ftracker.coppersurfer.tk%3A6969&amp;tr=udp%3A%2F%2Fexodus.desync.com%3A6969","seeders":8,"leechers":6,"uploader":"RedBaron58","files":6,"time":1399659152,"description":"Case Histories Series 1 DVDRip x264 mp4\n  &lt;a href=&quot;\nhttp://www.imdb.com/title/tt1748888/&quot; rel=&quot;nofollow&quot; target=&quot;_NEW&quot;&gt;\nhttp://www.imdb.com/title/tt1748888/&lt;/a&gt;\n\n\nPlease be patient My upload speed is limited, but I am online most the time and during the night.\nThank you for your kind comments and thumbs ups on my other torrents, your feedback is welcome.\n\n\nAbout the Series:\nCase Histories is a British drama television series based on the Jackson Brodie detective novels by \nKate Atkinson. It stars Jason Isaacs as Private investigator Jackson Brodie. \nThe series is both set and filmed in Edinburgh\n\n\nI hope you enjoy.\n\n\nTechnical: (All episodes encoded to same settings)\n\nGeneral\nComplete name                            : G:Case Histories S01Case Histories S01E01 Case Histories pt1 x264 RB58.mp4\nFormat                                   : MPEG-4\nFormat profile                           : Base Media / Version 2\nCodec ID                                 : mp42\nFile size                                : 483 MiB\nDuration                                 : 59mn 9s\nOverall bit rate mode                    : Variable\nOverall bit rate                         : 1 142 Kbps\nEncoded date                             : UTC 2013-01-25 14:12:25\nTagged date                              : UTC 2013-01-25 14:28:14\nWriting application                      : HandBrake 0.9.8 2012071700\n\nVideo\nID                                       : 1\nFormat                                   : AVC\nFormat/Info                              : Advanced Video Codec\nFormat profile                           : &lt;a class=&quot;__cf_email__&quot; href=&quot;/cdn-cgi/l/email-protection&quot; data-cfemail=&quot;f1bc90989fb1bdc2dfc1&quot;&gt;[email&amp;#160;protected]&lt;/a&gt;&lt;script cf-hash='f9e31' type=&quot;text/javascript&quot;&gt;\n/* &lt;![CDATA[ */!function(){try{var t=&quot;currentScript&quot;in document?document.currentScript:function(){for(var t=document.getElementsByTagName(&quot;script&quot;),e=t.length;e--;)if(t[e].getAttribute(&quot;cf-hash&quot;))return t[e]}();if(t&amp;&amp;t.previousSibling){var e,r,n,i,c=t.previousSibling,a=c.getAttribute(&quot;data-cfemail&quot;);if(a){for(e=&quot;&quot;,r=parseInt(a.substr(0,2),16),n=2;a.length-n;n+=2)i=parseInt(a.substr(n,2),16)^r,e+=String.fromCharCode(i);e=document.createTextNode(e),c.parentNode.replaceChild(e,c)}}}catch(u){}}();/* ]]&gt; */&lt;/script&gt;\nFormat settings, CABAC                   : Yes\nFormat settings, ReFrames                : 4 frames\nCodec ID                                 : avc1\nCodec ID/Info                            : Advanced Video Coding\nDuration                                 : 59mn 9s\nBit rate mode                            : Variable\nBit rate                                 : 978 Kbps\nWidth                                    : 704 pixels\nHeight                                   : 576 pixels\nDisplay aspect ratio                     : 1.738\nFrame rate mode                          : Constant\nFrame rate                               : 25.000 fps\nStandard                                 : PAL\nColor space                              : YUV\nChroma subsampling                       : 4:2:0\nBit depth                                : 8 bits\nScan type                                : Progressive\nBits/(Pixel*Frame)                       : 0.096\nStream size                              : 414 MiB (86%)\nWriting library                          : x264 core 120\nEncoding settings                        : cabac=1 / ref=1 / deblock=1:0:0\nEncoded date                             : UTC 2013-01-25 14:12:25\nTagged date                              : UTC 2013-01-25 14:28:14\nColor primaries                          : BT.601 NTSC\nTransfer characteristics                 : BT.709\nMatrix coefficients                      : BT.601\n\nAudio\nID                                       : 2\nFormat                                   : AAC\nFormat/Info                              : Advanced Audio Codec\nFormat profile                           : LC\nCodec ID                                 : 40\nDuration                                 : 59mn 9s\nBit rate mode                            : Variable\nBit rate                                 : 160 Kbps\nMaximum bit rate                         : 284 Kbps\nChannel(s)                               : 2 channels\nChannel positions                        : Front: L R\nSampling rate                            : 48.0 KHz\nCompression mode                         : Lossy\nDelay relative to video                  : 80ms\nStream size                              : 67.6 MiB (14%)\nLanguage                                 : English\nEncoded date                             : UTC 2013-01-25 14:12:25\nTagged date                              : UTC 2013-01-25 14:28:13","torrent":{"xt":"urn:btih:1ec3c9b924454e5f65f1f765442dfadc1759e4b6","amp;dn":"Case+Histories+S01","amp;tr":["udp%3A%2F%2Ftracker.openbittorrent.com%3A80","udp%3A%2F%2Fopen.demonii.com%3A1337","udp%3A%2F%2Ftracker.coppersurfer.tk%3A6969","udp%3A%2F%2Fexodus.desync.com%3A6969"],"infoHash":"1ec3c9b924454e5f65f1f765442dfadc1759e4b6","infoHashBuffer":{"type":"Buffer","data":[30,195,201,185,36,69,78,95,101,241,247,101,68,45,250,220,23,89,228,182]},"announce":[],"urlList":[]}}